<svg width="391" height="252" viewBox="0 0 391 252" fill="none" xmlns="http://www.w3.org/2000/svg">
<path d="M122.128 132.627C121.867 132.645 121.605 132.606 121.36 132.512C121.115 132.419 120.893 132.273 120.708 132.085C120.523 131.897 120.379 131.671 120.287 131.423C120.195 131.174 120.156 130.908 120.173 130.643V127.27C120.163 124.589 119.109 122.021 117.242 120.126C115.374 118.23 112.844 117.161 110.203 117.15H85.57C82.9288 117.161 80.3987 118.23 78.5311 120.126C76.6635 122.021 75.6098 124.589 75.5995 127.27V130.445C75.5995 130.971 75.3935 131.476 75.0268 131.848C74.6602 132.22 74.163 132.429 73.6445 132.429C73.126 132.429 72.6287 132.22 72.2621 131.848C71.8954 131.476 71.6895 130.971 71.6895 130.445V127.27C71.7049 123.538 73.1723 119.964 75.772 117.325C78.3718 114.687 81.8934 113.197 85.57 113.182H110.398C114.075 113.197 117.597 114.687 120.196 117.325C122.796 119.964 124.264 123.538 124.279 127.27V130.445C124.242 131.011 124.004 131.545 123.608 131.947C123.213 132.348 122.687 132.59 122.128 132.627Z" fill="#A4B1C6"/>
<path d="M124.279 159.613H71.4942C71.233 159.631 70.9711 159.591 70.726 159.498C70.481 159.404 70.2585 159.259 70.0734 159.071C69.8883 158.883 69.7449 158.657 69.6527 158.408C69.5606 158.16 69.5219 157.894 69.5392 157.629V131.238C69.5219 130.973 69.5606 130.707 69.6527 130.459C69.7449 130.21 69.8883 129.984 70.0734 129.796C70.2585 129.608 70.481 129.463 70.726 129.369C70.9711 129.276 71.233 129.237 71.4942 129.254H80.4872C80.7484 129.237 81.0102 129.276 81.2553 129.369C81.5003 129.463 81.7228 129.608 81.9079 129.796C82.093 129.984 82.2364 130.21 82.3286 130.459C82.4207 130.707 82.4594 130.973 82.4422 131.238V142.35H113.527V131.238C113.509 130.973 113.548 130.707 113.64 130.459C113.732 130.21 113.876 129.984 114.061 129.796C114.246 129.608 114.469 129.463 114.714 129.369C114.959 129.276 115.22 129.237 115.482 129.254H124.475C124.736 129.237 124.998 129.276 125.243 129.369C125.488 129.463 125.71 129.608 125.895 129.796C126.081 129.984 126.224 130.21 126.316 130.459C126.408 130.707 126.447 130.973 126.43 131.238V157.629C126.35 158.16 126.093 158.647 125.701 159.008C125.309 159.369 124.807 159.583 124.279 159.613ZM73.4492 155.645H122.324V133.223H117.3V144.334C117.317 144.599 117.278 144.865 117.186 145.114C117.094 145.363 116.951 145.589 116.766 145.776C116.58 145.964 116.358 146.11 116.113 146.203C115.868 146.297 115.606 146.336 115.345 146.319H80.4872C80.226 146.336 79.9641 146.297 79.719 146.203C79.474 146.11 79.2515 145.964 79.0664 145.776C78.8813 145.589 78.7379 145.363 78.6457 145.114C78.5536 144.865 78.5149 144.599 78.5322 144.334V133.223H73.4492V155.645Z" fill="#A4B1C6"/>
<path d="M214.307 104.451H157.612C157.094 104.451 156.596 104.242 156.23 103.87C155.863 103.498 155.657 102.993 155.657 102.467V62.7821C155.657 62.2558 155.863 61.7511 156.23 61.379C156.596 61.0069 157.094 60.7979 157.612 60.7979H214.307C214.826 60.7979 215.323 61.0069 215.69 61.379C216.056 61.7511 216.262 62.2558 216.262 62.7821V102.467C216.262 102.993 216.056 103.498 215.69 103.87C215.323 104.242 214.826 104.451 214.307 104.451ZM159.567 100.483H212.352V64.7664H159.567V100.483Z" fill="#A4B1C6"/>
<path d="M349.554 114.967H290.122C289.861 114.985 289.599 114.946 289.354 114.852C289.109 114.759 288.886 114.613 288.701 114.425C288.516 114.237 288.373 114.011 288.281 113.763C288.189 113.514 288.15 113.248 288.167 112.983V80.4414C288.15 80.1763 288.189 79.9105 288.281 79.6618C288.373 79.4131 288.516 79.1873 288.701 78.9994C288.886 78.8116 289.109 78.666 289.354 78.5725C289.599 78.479 289.861 78.4397 290.122 78.4572H349.359C349.62 78.4397 349.882 78.479 350.127 78.5725C350.372 78.666 350.594 78.8116 350.779 78.9994C350.964 79.1873 351.108 79.4131 351.2 79.6618C351.292 79.9105 351.331 80.1763 351.314 80.4414V112.983C351.335 113.233 351.306 113.484 351.228 113.721C351.149 113.959 351.024 114.177 350.859 114.363C350.694 114.55 350.493 114.699 350.268 114.803C350.044 114.907 349.801 114.963 349.554 114.967ZM292.077 110.999H347.404V82.4257H292.077V110.999Z" fill="#A4B1C6"/>
<path d="M327.462 123.897H312.213C311.952 123.914 311.69 123.875 311.445 123.782C311.2 123.688 310.977 123.542 310.792 123.355C310.607 123.167 310.464 122.941 310.372 122.692C310.279 122.443 310.241 122.178 310.258 121.913V112.983C310.241 112.718 310.279 112.453 310.372 112.204C310.464 111.955 310.607 111.729 310.792 111.541C310.977 111.354 311.2 111.208 311.445 111.114C311.69 111.021 311.952 110.982 312.213 110.999H327.462C327.723 110.982 327.985 111.021 328.23 111.114C328.475 111.208 328.698 111.354 328.883 111.541C329.068 111.729 329.211 111.955 329.303 112.204C329.395 112.453 329.434 112.718 329.417 112.983V121.913C329.381 122.427 329.163 122.91 328.804 123.275C328.445 123.639 327.968 123.86 327.462 123.897ZM314.168 119.928H325.507V114.968H314.168V119.928Z" fill="#A4B1C6"/>
<path d="M363.826 145.723H275.851C275.589 145.741 275.328 145.701 275.082 145.608C274.837 145.514 274.615 145.369 274.43 145.181C274.245 144.993 274.101 144.767 274.009 144.519C273.917 144.27 273.878 144.004 273.896 143.739V121.912C273.878 121.647 273.917 121.381 274.009 121.133C274.101 120.884 274.245 120.658 274.43 120.47C274.615 120.282 274.837 120.137 275.082 120.043C275.328 119.95 275.589 119.91 275.851 119.928H363.826C364.087 119.91 364.349 119.95 364.594 120.043C364.839 120.137 365.061 120.282 365.246 120.47C365.431 120.658 365.575 120.884 365.667 121.133C365.759 121.381 365.798 121.647 365.781 121.912V143.739C365.781 144.265 365.575 144.77 365.208 145.142C364.841 145.514 364.344 145.723 363.826 145.723ZM277.806 141.755H361.871V123.896H277.806V141.755Z" fill="#A4B1C6"/>
<path d="M290.122 153.065C289.861 153.083 289.599 153.043 289.354 152.95C289.109 152.856 288.886 152.711 288.701 152.523C288.516 152.335 288.373 152.109 288.281 151.86C288.189 151.612 288.15 151.346 288.167 151.081V143.541C288.167 142.35 288.539 141.755 289.712 141.755C290.885 141.755 292.077 142.35 292.077 143.541V151.081C292.094 151.346 292.056 151.612 291.964 151.86C291.871 152.109 291.728 152.335 291.543 152.523C291.358 152.711 291.135 152.856 290.89 152.95C290.645 153.043 290.383 153.083 290.122 153.065Z" fill="#A4B1C6"/>
<path d="M349.554 153.065C349.293 153.083 349.031 153.043 348.786 152.95C348.541 152.856 348.318 152.711 348.133 152.523C347.948 152.335 347.804 152.109 347.712 151.86C347.62 151.612 347.581 151.346 347.599 151.081V143.541C347.599 142.35 349.143 141.755 350.316 141.755C351.489 141.755 351.509 142.35 351.509 143.541V151.081C351.509 151.607 351.303 152.112 350.936 152.484C350.57 152.856 350.072 153.065 349.554 153.065Z" fill="#A4B1C6"/>
<path d="M229.028 194.318H143.008C142.747 194.335 142.485 194.296 142.24 194.202C141.995 194.109 141.772 193.963 141.587 193.775C141.402 193.587 141.259 193.362 141.166 193.113C141.074 192.864 141.036 192.598 141.053 192.333V171.896C141.036 171.63 141.074 171.365 141.166 171.116C141.259 170.867 141.402 170.641 141.587 170.454C141.772 170.266 141.995 170.12 142.24 170.027C142.485 169.933 142.747 169.894 143.008 169.911H229.028C229.289 169.894 229.551 169.933 229.796 170.027C230.041 170.12 230.263 170.266 230.449 170.454C230.634 170.641 230.777 170.867 230.869 171.116C230.961 171.365 231 171.63 230.983 171.896V192.333C230.947 192.847 230.729 193.331 230.37 193.695C230.011 194.06 229.534 194.281 229.028 194.318ZM144.963 190.349H227.073V173.88H144.963V190.349Z" fill="#A4B1C6"/>
<path d="M214.757 145.902H207.328C206.81 145.902 206.312 145.693 205.946 145.321C205.579 144.949 205.373 144.444 205.373 143.918C205.373 143.392 205.579 142.887 205.946 142.515C206.312 142.143 206.81 141.934 207.328 141.934H212.802V125.663H159.235V141.934H164.22C164.739 141.934 165.236 142.143 165.603 142.515C165.969 142.887 166.175 143.392 166.175 143.918C166.175 144.444 165.969 144.949 165.603 145.321C165.236 145.693 164.739 145.902 164.22 145.902H157.378C157.117 145.92 156.855 145.881 156.61 145.787C156.365 145.694 156.142 145.548 155.957 145.36C155.772 145.172 155.629 144.946 155.537 144.698C155.444 144.449 155.406 144.183 155.423 143.918V123.679C155.406 123.414 155.444 123.148 155.537 122.899C155.629 122.65 155.772 122.425 155.957 122.237C156.142 122.049 156.365 121.903 156.61 121.81C156.855 121.716 157.117 121.677 157.378 121.694H214.659C214.921 121.677 215.183 121.716 215.428 121.81C215.673 121.903 215.895 122.049 216.08 122.237C216.265 122.425 216.409 122.65 216.501 122.899C216.593 123.148 216.632 123.414 216.614 123.679V143.918C216.655 144.179 216.635 144.447 216.558 144.699C216.48 144.952 216.347 145.183 216.167 145.374C215.988 145.566 215.767 145.714 215.523 145.805C215.278 145.897 215.016 145.93 214.757 145.902Z" fill="#A4B1C6"/>
<path d="M191.101 145.902H180.935C180.417 145.902 179.92 145.693 179.553 145.321C179.186 144.949 178.98 144.444 178.98 143.918C178.98 143.392 179.186 142.887 179.553 142.515C179.92 142.143 180.417 141.934 180.935 141.934H191.101C191.363 141.916 191.625 141.956 191.87 142.049C192.115 142.143 192.337 142.288 192.522 142.476C192.707 142.664 192.851 142.89 192.943 143.138C193.035 143.387 193.074 143.653 193.056 143.918C193.056 144.444 192.85 144.949 192.484 145.321C192.117 145.693 191.62 145.902 191.101 145.902Z" fill="#A4B1C6"/>
<path d="M229.028 173.88H143.008C142.66 173.859 142.322 173.759 142.017 173.587C141.713 173.416 141.45 173.177 141.249 172.888C141.058 172.593 140.956 172.249 140.956 171.896C140.956 171.543 141.058 171.198 141.249 170.904L155.52 142.866C155.814 142.555 156.201 142.349 156.62 142.281C157.04 142.212 157.47 142.284 157.846 142.486C158.222 142.688 158.523 143.008 158.703 143.399C158.883 143.79 158.932 144.23 158.844 144.652L146.332 169.852H225.705L213.095 144.851C212.886 144.629 212.73 144.361 212.64 144.068C212.55 143.775 212.528 143.465 212.576 143.162C212.624 142.859 212.741 142.571 212.917 142.322C213.093 142.072 213.324 141.867 213.591 141.724C213.859 141.58 214.155 141.501 214.458 141.494C214.76 141.486 215.06 141.55 215.334 141.68C215.608 141.81 215.848 142.003 216.037 142.243C216.225 142.483 216.355 142.764 216.418 143.065L230.69 171.043C230.834 171.353 230.909 171.692 230.909 172.035C230.909 172.378 230.834 172.717 230.69 173.027C230.518 173.311 230.271 173.541 229.978 173.692C229.684 173.843 229.356 173.908 229.028 173.88Z" fill="#A4B1C6"/>
<path d="M155.521 202.255C155.259 202.273 154.997 202.233 154.752 202.14C154.507 202.046 154.285 201.901 154.1 201.713C153.915 201.525 153.771 201.299 153.679 201.05C153.587 200.802 153.548 200.536 153.566 200.271V192.334C153.566 191.808 153.772 191.303 154.138 190.931C154.505 190.559 155.002 190.35 155.521 190.35C156.039 190.35 156.536 190.559 156.903 190.931C157.27 191.303 157.476 191.808 157.476 192.334V200.271C157.493 200.536 157.454 200.802 157.362 201.05C157.27 201.299 157.126 201.525 156.941 201.713C156.756 201.901 156.534 202.046 156.289 202.14C156.044 202.233 155.782 202.273 155.521 202.255Z" fill="#A4B1C6"/>
<path d="M216.517 202.255C216.255 202.273 215.994 202.233 215.749 202.14C215.503 202.046 215.281 201.901 215.096 201.713C214.911 201.525 214.767 201.299 214.675 201.05C214.583 200.802 214.544 200.536 214.562 200.271V192.334C214.562 191.808 214.768 191.303 215.134 190.931C215.501 190.559 215.998 190.35 216.517 190.35C217.035 190.35 217.532 190.559 217.899 190.931C218.266 191.303 218.472 191.808 218.472 192.334V200.271C218.472 200.797 218.266 201.302 217.899 201.674C217.532 202.046 217.035 202.255 216.517 202.255Z" fill="#A4B1C6"/>
<path d="M180.935 150.466H165.49C165.229 150.484 164.967 150.444 164.722 150.351C164.477 150.257 164.255 150.112 164.07 149.924C163.884 149.736 163.741 149.51 163.649 149.262C163.557 149.013 163.518 148.747 163.535 148.482V139.553C163.518 139.288 163.557 139.022 163.649 138.773C163.741 138.524 163.884 138.299 164.07 138.111C164.255 137.923 164.477 137.777 164.722 137.684C164.967 137.59 165.229 137.551 165.49 137.569H180.935C181.196 137.551 181.458 137.59 181.703 137.684C181.948 137.777 182.17 137.923 182.356 138.111C182.541 138.299 182.684 138.524 182.776 138.773C182.868 139.022 182.907 139.288 182.89 139.553V148.482C182.89 149.008 182.684 149.513 182.317 149.885C181.951 150.257 181.453 150.466 180.935 150.466ZM167.445 146.498H178.98V141.537H167.445V146.498Z" fill="#A4B1C6"/>
<path d="M206.546 150.466H191.102C190.84 150.484 190.578 150.444 190.333 150.351C190.088 150.257 189.866 150.112 189.681 149.924C189.496 149.736 189.352 149.51 189.26 149.262C189.168 149.013 189.129 148.747 189.147 148.482V139.553C189.129 139.288 189.168 139.022 189.26 138.773C189.352 138.524 189.496 138.299 189.681 138.111C189.866 137.923 190.088 137.777 190.333 137.684C190.578 137.59 190.84 137.551 191.102 137.569H206.546C206.807 137.551 207.069 137.59 207.314 137.684C207.559 137.777 207.782 137.923 207.967 138.111C208.152 138.299 208.295 138.524 208.388 138.773C208.48 139.022 208.518 139.288 208.501 139.553V148.482C208.501 149.008 208.295 149.513 207.928 149.885C207.562 150.257 207.065 150.466 206.546 150.466ZM193.057 146.498H204.591V141.537H193.057V146.498Z" fill="#A4B1C6"/>
<path d="M249.634 147.509H228.129C227.61 147.509 227.113 147.3 226.746 146.928C226.38 146.556 226.174 146.051 226.174 145.525V123.698C226.174 123.172 226.38 122.667 226.746 122.295C227.113 121.923 227.61 121.714 228.129 121.714H249.634C250.152 121.714 250.65 121.923 251.016 122.295C251.383 122.667 251.589 123.172 251.589 123.698V145.525C251.589 146.051 251.383 146.556 251.016 146.928C250.65 147.3 250.152 147.509 249.634 147.509ZM230.084 143.541H247.679V125.682H230.084V143.541Z" fill="#A4B1C6"/>
<path d="M232.039 153.065C231.52 153.065 231.023 152.856 230.657 152.484C230.29 152.112 230.084 151.607 230.084 151.081V147.112C230.084 146.586 230.29 146.081 230.657 145.709C231.023 145.337 231.52 145.128 232.039 145.128C232.557 145.128 233.055 145.337 233.421 145.709C233.788 146.081 233.994 146.586 233.994 147.112V151.081C233.994 151.607 233.788 152.112 233.421 152.484C233.055 152.856 232.557 153.065 232.039 153.065Z" fill="#A4B1C6"/>
<path d="M245.724 153.065C245.205 153.065 244.708 152.856 244.341 152.484C243.975 152.112 243.769 151.607 243.769 151.081V147.112C243.769 146.586 243.975 146.081 244.341 145.709C244.708 145.337 245.205 145.128 245.724 145.128C246.242 145.128 246.739 145.337 247.106 145.709C247.473 146.081 247.679 146.586 247.679 147.112V151.081C247.679 151.607 247.473 152.112 247.106 152.484C246.739 152.856 246.242 153.065 245.724 153.065Z" fill="#A4B1C6"/>
<path d="M80.4872 164.971C79.9687 164.971 79.4715 164.762 79.1048 164.39C78.7382 164.018 78.5322 163.513 78.5322 162.987V159.018C78.5322 158.492 78.7382 157.987 79.1048 157.615C79.4715 157.243 79.9687 157.034 80.4872 157.034C81.0057 157.034 81.503 157.243 81.8696 157.615C82.2363 157.987 82.4422 158.492 82.4422 159.018V162.987C82.4422 163.513 82.2363 164.018 81.8696 164.39C81.503 164.762 81.0057 164.971 80.4872 164.971Z" fill="#A4B1C6"/>
<path d="M115.227 164.971C114.709 164.971 114.212 164.762 113.845 164.39C113.478 164.018 113.272 163.513 113.272 162.987V159.018C113.272 158.492 113.478 157.987 113.845 157.615C114.212 157.243 114.709 157.034 115.227 157.034C115.746 157.034 116.243 157.243 116.61 157.615C116.976 157.987 117.182 158.492 117.182 159.018V162.987C117.182 163.513 116.976 164.018 116.61 164.39C116.243 164.762 115.746 164.971 115.227 164.971Z" fill="#A4B1C6"/>
<path d="M97.9843 133.798C97.4658 133.798 96.9685 133.589 96.6019 133.217C96.2353 132.845 96.0293 132.34 96.0293 131.814V127.846C96.0293 127.319 96.2353 126.815 96.6019 126.443C96.9685 126.07 97.4658 125.861 97.9843 125.861C98.5028 125.861 99.0001 126.07 99.3667 126.443C99.7333 126.815 99.9393 127.319 99.9393 127.846V131.814C99.9393 132.34 99.7333 132.845 99.3667 133.217C99.0001 133.589 98.5028 133.798 97.9843 133.798Z" fill="#A4B1C6"/>
<path d="M236.047 134.611C236.03 134.346 236.068 134.08 236.161 133.832C236.253 133.583 236.396 133.357 236.581 133.169C236.766 132.981 236.989 132.836 237.234 132.742C237.479 132.649 237.741 132.61 238.002 132.627H239.761C240.28 132.627 240.777 132.836 241.144 133.208C241.511 133.58 241.716 134.085 241.716 134.611C241.716 135.138 241.511 135.642 241.144 136.014C240.777 136.387 240.28 136.596 239.761 136.596H238.002C237.741 136.613 237.479 136.574 237.234 136.48C236.989 136.387 236.766 136.241 236.581 136.053C236.396 135.866 236.253 135.64 236.161 135.391C236.068 135.142 236.03 134.876 236.047 134.611Z" fill="#A4B1C6"/>
<path d="M62.6772 164.971H35.6982C35.1797 164.971 34.6824 164.762 34.3158 164.389C33.9491 164.017 33.7432 163.513 33.7432 162.986C33.7432 162.46 33.9491 161.955 34.3158 161.583C34.6824 161.211 35.1797 161.002 35.6982 161.002H62.6772C62.9384 160.985 63.2003 161.024 63.4453 161.117C63.6903 161.211 63.9128 161.356 64.0979 161.544C64.283 161.732 64.4264 161.958 64.5186 162.207C64.6107 162.455 64.6494 162.721 64.6322 162.986C64.6322 163.513 64.4262 164.017 64.0596 164.389C63.6929 164.762 63.1957 164.971 62.6772 164.971Z" fill="#A4B1C6"/>
<path d="M49.1875 164.832C48.9263 164.849 48.6644 164.81 48.4194 164.716C48.1744 164.623 47.9519 164.477 47.7668 164.289C47.5817 164.102 47.4382 163.876 47.3461 163.627C47.254 163.378 47.2152 163.113 47.2325 162.847V91.0175C47.2325 90.4912 47.4385 89.9865 47.8051 89.6144C48.1718 89.2423 48.669 89.0332 49.1875 89.0332C49.706 89.0332 50.2033 89.2423 50.5699 89.6144C50.9366 89.9865 51.1425 90.4912 51.1425 91.0175V162.847C51.1598 163.113 51.1211 163.378 51.0289 163.627C50.9368 163.876 50.7934 164.102 50.6083 164.289C50.4232 164.477 50.2007 164.623 49.9556 164.716C49.7106 164.81 49.4487 164.849 49.1875 164.832Z" fill="#A4B1C6"/>
<path d="M71.2987 91.0177H27.1157C26.5147 90.9617 25.9565 90.6784 25.5517 90.224C25.383 89.9629 25.2774 89.6651 25.2434 89.3548C25.2094 89.0445 25.2481 88.7304 25.3562 88.4382L37.2817 51.1342C37.4108 50.7161 37.6726 50.3531 38.0262 50.1019C38.3799 49.8506 38.8055 49.7252 39.2367 49.7452H59.5687C59.9872 49.7781 60.3894 49.9243 60.7332 50.1686C61.0771 50.4129 61.3501 50.7464 61.5237 51.1342L73.0582 88.4382C73.1883 89.0391 73.1196 89.6667 72.8627 90.224C72.458 90.6784 71.8997 90.9617 71.2987 91.0177ZM29.8527 87.0492H68.5617L58.0047 53.7137H40.4097L29.8527 87.0492Z" fill="#A4B1C6"/>
</svg>
