<svg width="391" height="252" viewBox="0 0 391 252" fill="none" xmlns="http://www.w3.org/2000/svg">
<path d="M117.3 137.707C117.039 137.725 116.777 137.686 116.532 137.592C116.287 137.499 116.065 137.353 115.88 137.165C115.695 136.977 115.551 136.751 115.459 136.503C115.367 136.254 115.328 135.988 115.345 135.723V78.9735H52.3749V135.525C52.3749 136.051 52.169 136.556 51.8023 136.928C51.4357 137.3 50.9384 137.509 50.4199 137.509C49.9014 137.509 49.4042 137.3 49.0376 136.928C48.6709 136.556 48.4649 136.051 48.4649 135.525V76.9893C48.4477 76.7242 48.4864 76.4584 48.5785 76.2097C48.6707 75.961 48.8141 75.7352 48.9992 75.5473C49.1843 75.3594 49.4068 75.2138 49.6518 75.1203C49.8969 75.0268 50.1587 74.9875 50.4199 75.005H117.476C117.738 74.9875 118 75.0268 118.245 75.1203C118.49 75.2138 118.712 75.3594 118.897 75.5473C119.082 75.7352 119.226 75.961 119.318 76.2097C119.41 76.4584 119.449 76.7242 119.431 76.9893V135.525C119.395 136.088 119.16 136.619 118.768 137.02C118.377 137.422 117.855 137.666 117.3 137.707Z" fill="#A4B1C6"/>
<path d="M101.445 87.7039H99.4902C98.9717 87.7039 98.4744 87.4948 98.1078 87.1227C97.7411 86.7506 97.5352 86.2459 97.5352 85.7196C97.5352 85.1933 97.7411 84.6886 98.1078 84.3165C98.4744 83.9444 98.9717 83.7354 99.4902 83.7354H101.445C101.964 83.7354 102.461 83.9444 102.828 84.3165C103.194 84.6886 103.4 85.1933 103.4 85.7196C103.4 86.2459 103.194 86.7506 102.828 87.1227C102.461 87.4948 101.964 87.7039 101.445 87.7039Z" fill="#A4B1C6"/>
<path d="M68.0145 87.7039H66.0595C65.541 87.7039 65.0437 87.4948 64.6771 87.1227C64.3105 86.7506 64.1045 86.2459 64.1045 85.7196C64.1045 85.1933 64.3105 84.6886 64.6771 84.3165C65.0437 83.9444 65.541 83.7354 66.0595 83.7354H68.0145C68.533 83.7354 69.0303 83.9444 69.3969 84.3165C69.7635 84.6886 69.9695 85.1933 69.9695 85.7196C69.9695 86.2459 69.7635 86.7506 69.3969 87.1227C69.0303 87.4948 68.533 87.7039 68.0145 87.7039Z" fill="#A4B1C6"/>
<path d="M117.3 96.2362H50.4198C49.9013 96.2362 49.4041 96.0272 49.0374 95.6551C48.6708 95.283 48.4648 94.7782 48.4648 94.252C48.4648 93.7257 48.6708 93.221 49.0374 92.8489C49.4041 92.4768 49.9013 92.2677 50.4198 92.2677H117.476C117.738 92.2502 117.999 92.2895 118.244 92.383C118.489 92.4765 118.712 92.6221 118.897 92.81C119.082 92.9978 119.226 93.2237 119.318 93.4724C119.41 93.7211 119.449 93.9869 119.431 94.252C119.432 94.5283 119.377 94.8018 119.268 95.055C119.159 95.3081 118.999 95.5354 118.798 95.7222C118.597 95.909 118.361 96.0512 118.103 96.1397C117.845 96.2282 117.572 96.2611 117.3 96.2362Z" fill="#A4B1C6"/>
<path d="M83.8496 96.2364C83.5884 96.2539 83.3265 96.2146 83.0815 96.1211C82.8365 96.0276 82.614 95.882 82.4289 95.6941C82.2438 95.5063 82.1004 95.2804 82.0082 95.0317C81.9161 94.783 81.8774 94.5172 81.8946 94.2521V76.9891C81.8946 76.4629 82.1006 75.9582 82.4672 75.5861C82.8339 75.2139 83.3311 75.0049 83.8496 75.0049C84.3681 75.0049 84.8654 75.2139 85.232 75.5861C85.5987 75.9582 85.8046 76.4629 85.8046 76.9891V94.0537C85.8321 94.3305 85.8018 94.61 85.7159 94.8741C85.63 95.1382 85.4904 95.3811 85.306 95.5869C85.1217 95.7927 84.8968 95.9569 84.6459 96.0688C84.395 96.1807 84.1237 96.2378 83.8496 96.2364Z" fill="#A4B1C6"/>
<path d="M127.837 78.9734H39.8622C39.3437 78.9734 38.8465 78.7643 38.4798 78.3922C38.1132 78.0201 37.9072 77.5154 37.9072 76.9891C37.9072 76.4629 38.1132 75.9582 38.4798 75.5861C38.8465 75.2139 39.3437 75.0049 39.8622 75.0049H127.837C128.356 75.0049 128.853 75.2139 129.22 75.5861C129.586 75.9582 129.792 76.4629 129.792 76.9891C129.792 77.5154 129.586 78.0201 129.22 78.3922C128.853 78.7643 128.356 78.9734 127.837 78.9734Z" fill="#A4B1C6"/>
<path d="M219.253 178.98H133.233C132.972 178.997 132.71 178.958 132.465 178.864C132.22 178.771 131.998 178.625 131.813 178.437C131.628 178.25 131.484 178.024 131.392 177.775C131.3 177.526 131.261 177.261 131.278 176.995V156.558C131.261 156.293 131.3 156.027 131.392 155.778C131.484 155.529 131.628 155.304 131.813 155.116C131.998 154.928 132.22 154.782 132.465 154.689C132.71 154.595 132.972 154.556 133.233 154.573H219.253C219.515 154.556 219.777 154.595 220.022 154.689C220.267 154.782 220.489 154.928 220.674 155.116C220.859 155.304 221.003 155.529 221.095 155.778C221.187 156.027 221.226 156.293 221.208 156.558V176.995C221.172 177.51 220.954 177.993 220.595 178.358C220.236 178.722 219.76 178.943 219.253 178.98ZM135.188 175.011H217.298V158.542H135.188V175.011Z" fill="#A4B1C6"/>
<path d="M204.982 130.564H197.553C197.034 130.564 196.537 130.354 196.17 129.982C195.804 129.61 195.598 129.106 195.598 128.579C195.598 128.053 195.804 127.548 196.17 127.176C196.537 126.804 197.034 126.595 197.553 126.595H203.027V110.324H149.46V126.595H154.445C154.964 126.595 155.461 126.804 155.827 127.176C156.194 127.548 156.4 128.053 156.4 128.579C156.4 129.106 156.194 129.61 155.827 129.982C155.461 130.354 154.964 130.564 154.445 130.564H147.603C147.341 130.581 147.079 130.542 146.834 130.448C146.589 130.355 146.367 130.209 146.182 130.021C145.997 129.833 145.853 129.608 145.761 129.359C145.669 129.11 145.63 128.844 145.648 128.579V108.34C145.63 108.075 145.669 107.809 145.761 107.56C145.853 107.312 145.997 107.086 146.182 106.898C146.367 106.71 146.589 106.564 146.834 106.471C147.079 106.377 147.341 106.338 147.603 106.356H204.884C205.145 106.338 205.407 106.377 205.652 106.471C205.897 106.564 206.12 106.71 206.305 106.898C206.49 107.086 206.633 107.312 206.725 107.56C206.818 107.809 206.856 108.075 206.839 108.34V128.579C206.879 128.841 206.86 129.108 206.783 129.36C206.705 129.613 206.571 129.844 206.392 130.036C206.212 130.227 205.992 130.375 205.747 130.466C205.503 130.558 205.241 130.591 204.982 130.564Z" fill="#A4B1C6"/>
<path d="M181.326 130.563H171.16C170.642 130.563 170.144 130.354 169.778 129.982C169.411 129.61 169.205 129.105 169.205 128.579C169.205 128.053 169.411 127.548 169.778 127.176C170.144 126.804 170.642 126.595 171.16 126.595H181.326C181.587 126.577 181.849 126.617 182.094 126.71C182.339 126.804 182.562 126.949 182.747 127.137C182.932 127.325 183.075 127.551 183.167 127.8C183.26 128.048 183.298 128.314 183.281 128.579C183.281 129.105 183.075 129.61 182.708 129.982C182.342 130.354 181.845 130.563 181.326 130.563Z" fill="#A4B1C6"/>
<path d="M219.254 158.541H133.234C132.886 158.52 132.547 158.42 132.243 158.248C131.938 158.077 131.676 157.838 131.474 157.549C131.283 157.255 131.182 156.91 131.182 156.557C131.182 156.205 131.283 155.86 131.474 155.565L145.746 127.587C146.04 127.276 146.426 127.07 146.846 127.001C147.266 126.933 147.696 127.005 148.072 127.207C148.447 127.408 148.748 127.729 148.928 128.12C149.108 128.511 149.158 128.951 149.069 129.373L136.557 154.573H215.93L203.321 129.571C203.111 129.35 202.955 129.082 202.865 128.789C202.775 128.496 202.754 128.185 202.802 127.882C202.85 127.579 202.967 127.292 203.143 127.042C203.319 126.793 203.55 126.588 203.817 126.444C204.084 126.301 204.381 126.222 204.683 126.214C204.986 126.207 205.286 126.271 205.56 126.401C205.834 126.53 206.074 126.723 206.262 126.964C206.45 127.204 206.581 127.485 206.644 127.785L220.916 155.763C221.06 156.074 221.135 156.412 221.135 156.756C221.135 157.099 221.06 157.437 220.916 157.748C220.736 158.021 220.486 158.239 220.193 158.379C219.901 158.519 219.576 158.575 219.254 158.541Z" fill="#A4B1C6"/>
<path d="M145.745 186.916C145.484 186.934 145.222 186.894 144.977 186.801C144.732 186.707 144.509 186.562 144.324 186.374C144.139 186.186 143.996 185.96 143.904 185.712C143.812 185.463 143.773 185.197 143.79 184.932V176.995C143.79 176.469 143.996 175.964 144.363 175.592C144.729 175.22 145.227 175.011 145.745 175.011C146.264 175.011 146.761 175.22 147.128 175.592C147.494 175.964 147.7 176.469 147.7 176.995V184.932C147.717 185.197 147.679 185.463 147.587 185.712C147.494 185.96 147.351 186.186 147.166 186.374C146.981 186.562 146.758 186.707 146.513 186.801C146.268 186.894 146.006 186.934 145.745 186.916Z" fill="#A4B1C6"/>
<path d="M206.741 186.916C206.48 186.934 206.218 186.894 205.973 186.801C205.728 186.707 205.506 186.562 205.32 186.374C205.135 186.186 204.992 185.96 204.9 185.712C204.808 185.463 204.769 185.197 204.786 184.932V176.995C204.786 176.469 204.992 175.964 205.359 175.592C205.725 175.22 206.223 175.011 206.741 175.011C207.26 175.011 207.757 175.22 208.124 175.592C208.49 175.964 208.696 176.469 208.696 176.995V184.932C208.696 185.458 208.49 185.963 208.124 186.335C207.757 186.707 207.26 186.916 206.741 186.916Z" fill="#A4B1C6"/>
<path d="M171.16 135.127H155.716C155.455 135.145 155.193 135.106 154.948 135.012C154.703 134.918 154.48 134.773 154.295 134.585C154.11 134.397 153.967 134.171 153.874 133.923C153.782 133.674 153.744 133.408 153.761 133.143V124.214C153.744 123.949 153.782 123.683 153.874 123.434C153.967 123.186 154.11 122.96 154.295 122.772C154.48 122.584 154.703 122.438 154.948 122.345C155.193 122.251 155.455 122.212 155.716 122.23H171.16C171.422 122.212 171.683 122.251 171.928 122.345C172.173 122.438 172.396 122.584 172.581 122.772C172.766 122.96 172.91 123.186 173.002 123.434C173.094 123.683 173.133 123.949 173.115 124.214V133.143C173.115 133.669 172.909 134.174 172.543 134.546C172.176 134.918 171.679 135.127 171.16 135.127ZM157.671 131.159H169.205V126.198H157.671V131.159Z" fill="#A4B1C6"/>
<path d="M196.771 135.127H181.326C181.065 135.145 180.803 135.106 180.558 135.012C180.313 134.918 180.091 134.773 179.905 134.585C179.72 134.397 179.577 134.171 179.485 133.923C179.393 133.674 179.354 133.408 179.371 133.143V124.214C179.354 123.949 179.393 123.683 179.485 123.434C179.577 123.186 179.72 122.96 179.905 122.772C180.091 122.584 180.313 122.438 180.558 122.345C180.803 122.251 181.065 122.212 181.326 122.23H196.771C197.032 122.212 197.294 122.251 197.539 122.345C197.784 122.438 198.006 122.584 198.191 122.772C198.377 122.96 198.52 123.186 198.612 123.434C198.704 123.683 198.743 123.949 198.726 124.214V133.143C198.726 133.669 198.52 134.174 198.153 134.546C197.786 134.918 197.289 135.127 196.771 135.127ZM183.281 131.159H194.816V126.198H183.281V131.159Z" fill="#A4B1C6"/>
<path d="M239.879 132.151H218.374C217.855 132.151 217.358 131.942 216.992 131.57C216.625 131.197 216.419 130.693 216.419 130.166V108.34C216.419 107.813 216.625 107.309 216.992 106.937C217.358 106.565 217.855 106.355 218.374 106.355H239.879C240.397 106.355 240.895 106.565 241.261 106.937C241.628 107.309 241.834 107.813 241.834 108.34V130.166C241.834 130.693 241.628 131.197 241.261 131.57C240.895 131.942 240.397 132.151 239.879 132.151ZM220.329 128.182H237.924V110.324H220.329V128.182Z" fill="#A4B1C6"/>
<path d="M222.283 137.708C221.765 137.708 221.267 137.498 220.901 137.126C220.534 136.754 220.328 136.25 220.328 135.723V131.755C220.328 131.229 220.534 130.724 220.901 130.352C221.267 129.98 221.765 129.771 222.283 129.771C222.802 129.771 223.299 129.98 223.666 130.352C224.032 130.724 224.238 131.229 224.238 131.755V135.723C224.238 136.25 224.032 136.754 223.666 137.126C223.299 137.498 222.802 137.708 222.283 137.708Z" fill="#A4B1C6"/>
<path d="M235.969 137.708C235.45 137.708 234.953 137.498 234.586 137.126C234.22 136.754 234.014 136.25 234.014 135.723V131.755C234.014 131.229 234.22 130.724 234.586 130.352C234.953 129.98 235.45 129.771 235.969 129.771C236.487 129.771 236.984 129.98 237.351 130.352C237.718 130.724 237.924 131.229 237.924 131.755V135.723C237.924 136.25 237.718 136.754 237.351 137.126C236.984 137.498 236.487 137.708 235.969 137.708Z" fill="#A4B1C6"/>
<path d="M226.291 119.254C226.274 118.989 226.313 118.723 226.405 118.474C226.497 118.226 226.64 118 226.825 117.812C227.01 117.624 227.233 117.478 227.478 117.385C227.723 117.291 227.985 117.252 228.246 117.27H230.006C230.524 117.27 231.021 117.479 231.388 117.851C231.755 118.223 231.961 118.728 231.961 119.254C231.961 119.78 231.755 120.285 231.388 120.657C231.021 121.029 230.524 121.238 230.006 121.238H228.246C227.985 121.256 227.723 121.216 227.478 121.123C227.233 121.029 227.01 120.884 226.825 120.696C226.64 120.508 226.497 120.282 226.405 120.034C226.313 119.785 226.274 119.519 226.291 119.254Z" fill="#A4B1C6"/>
<path d="M336.866 101.593H277.434C277.172 101.611 276.911 101.572 276.666 101.478C276.42 101.385 276.198 101.239 276.013 101.051C275.828 100.863 275.684 100.637 275.592 100.389C275.5 100.14 275.461 99.8743 275.479 99.6092V67.0674C275.461 66.8023 275.5 66.5365 275.592 66.2878C275.684 66.0391 275.828 65.8133 276.013 65.6254C276.198 65.4375 276.42 65.292 276.666 65.1985C276.911 65.1049 277.172 65.0656 277.434 65.0832H336.67C336.931 65.0656 337.193 65.1049 337.438 65.1985C337.683 65.292 337.906 65.4375 338.091 65.6254C338.276 65.8133 338.419 66.0391 338.512 66.2878C338.604 66.5365 338.642 66.8023 338.625 67.0674V99.6092C338.647 99.8586 338.617 100.11 338.539 100.347C338.461 100.585 338.335 100.803 338.17 100.989C338.005 101.175 337.804 101.325 337.58 101.429C337.355 101.533 337.112 101.589 336.866 101.593ZM279.389 97.6249H334.715V69.0517H279.389V97.6249Z" fill="#A4B1C6"/>
<path d="M314.755 110.523H299.506C299.245 110.54 298.983 110.501 298.738 110.408C298.493 110.314 298.27 110.168 298.085 109.981C297.9 109.793 297.757 109.567 297.664 109.318C297.572 109.069 297.534 108.804 297.551 108.539V99.6094C297.534 99.3443 297.572 99.0785 297.664 98.8298C297.757 98.5811 297.9 98.3553 298.085 98.1674C298.27 97.9795 298.493 97.834 298.738 97.7404C298.983 97.6469 299.245 97.6076 299.506 97.6252H314.755C315.016 97.6076 315.278 97.6469 315.523 97.7404C315.768 97.834 315.991 97.9795 316.176 98.1674C316.361 98.3553 316.504 98.5811 316.596 98.8298C316.688 99.0785 316.727 99.3443 316.71 99.6094V108.539C316.674 109.053 316.456 109.536 316.097 109.901C315.738 110.265 315.261 110.486 314.755 110.523ZM301.461 106.554H312.8V101.594H301.461V106.554Z" fill="#A4B1C6"/>
<path d="M351.138 132.349H263.163C262.902 132.367 262.64 132.327 262.395 132.234C262.15 132.14 261.927 131.995 261.742 131.807C261.557 131.619 261.414 131.393 261.322 131.145C261.23 130.896 261.191 130.63 261.208 130.365V108.538C261.191 108.273 261.23 108.007 261.322 107.759C261.414 107.51 261.557 107.284 261.742 107.096C261.927 106.908 262.15 106.763 262.395 106.669C262.64 106.576 262.902 106.536 263.163 106.554H351.138C351.399 106.536 351.661 106.576 351.906 106.669C352.151 106.763 352.374 106.908 352.559 107.096C352.744 107.284 352.887 107.51 352.98 107.759C353.072 108.007 353.11 108.273 353.093 108.538V130.365C353.093 130.891 352.887 131.396 352.521 131.768C352.154 132.14 351.657 132.349 351.138 132.349ZM265.118 128.381H349.183V110.522H265.118V128.381Z" fill="#A4B1C6"/>
<path d="M277.434 137.707C277.172 137.724 276.911 137.685 276.666 137.592C276.42 137.498 276.198 137.353 276.013 137.165C275.828 136.977 275.684 136.751 275.592 136.502C275.5 136.254 275.461 135.988 275.479 135.723V130.167C275.479 128.976 275.85 128.381 277.023 128.381C278.196 128.381 279.389 128.976 279.389 130.167V135.723C279.406 135.988 279.367 136.254 279.275 136.502C279.183 136.751 279.039 136.977 278.854 137.165C278.669 137.353 278.447 137.498 278.202 137.592C277.957 137.685 277.695 137.724 277.434 137.707Z" fill="#A4B1C6"/>
<path d="M336.866 137.707C336.605 137.724 336.343 137.685 336.098 137.592C335.853 137.498 335.631 137.353 335.445 137.165C335.26 136.977 335.117 136.751 335.025 136.502C334.933 136.254 334.894 135.988 334.911 135.723V130.167C334.911 128.976 336.456 128.381 337.629 128.381C338.802 128.381 338.821 128.976 338.821 130.167V135.723C338.821 135.983 338.771 136.241 338.672 136.482C338.574 136.723 338.43 136.941 338.249 137.126C338.067 137.31 337.852 137.456 337.614 137.556C337.377 137.656 337.123 137.707 336.866 137.707Z" fill="#A4B1C6"/>
</svg>
