<svg width="24" height="31" viewBox="0 0 24 31" fill="none" xmlns="http://www.w3.org/2000/svg">
<path d="M21.3559 16.1247C22.3233 16.1727 23.2498 16.5291 24 17.1417C24 14.2942 20.9492 12.0569 20.1356 11.8536C21.1525 11.6502 22.7797 12.4637 22.7797 12.4637C22.3729 11.6502 20.7458 10.2264 20.7458 10.2264C20.7458 10.2264 21.9661 9.41288 22.3729 6.36203C23.3898 1.68407 21.5593 0.260339 20.7458 0.0569492C19.9322 -0.146441 19.7288 0.260339 19.7288 0.260339C19.7288 0.260339 16.6312 3.35797 15.1851 4.64542C15.0652 4.75639 14.9096 4.82102 14.7464 4.82773C14.5832 4.83444 14.4229 4.78279 14.2942 4.68203C13.562 4.08203 13.4237 2.70102 13.4237 2.70102C13.4237 2.70102 12.8136 2.90441 13.0169 4.12475C12.4068 3.92136 12 1.27729 12 1.27729C12 1.27729 11.5932 3.92136 10.9831 4.12475C11.1864 2.90441 10.5763 2.70102 10.5763 2.70102C10.5763 2.70102 10.438 4.08203 9.70576 4.68203C9.57714 4.78279 9.41685 4.83444 9.2536 4.82773C9.09035 4.82102 8.93483 4.75639 8.81491 4.64542C7.36881 3.35797 4.27119 0.260339 4.27119 0.260339C4.27119 0.260339 4.0678 -0.146441 3.25424 0.0569492C2.44068 0.260339 0.610169 1.68407 1.62712 6.36203C2.0339 9.41288 3.25424 10.2264 3.25424 10.2264C3.25424 10.2264 1.62712 11.6502 1.22034 12.4637C1.22034 12.4637 2.84746 11.6502 3.86441 11.8536C3.05085 12.0569 0 14.2942 0 17.1417C0.750172 16.5291 1.67674 16.1727 2.64407 16.1247C2.64407 16.1247 0.610169 17.1417 1.42373 20.5993C2.64407 19.5824 5.08475 19.5824 5.8983 21.2095C6.71186 22.8366 7.72881 28.5315 7.72881 28.5315C7.72881 28.5315 7.72881 30.9722 11.7966 30.7688C15.8644 30.9722 16.2712 28.5315 16.2712 28.5315C16.2712 28.5315 17.2881 22.8366 18.1017 21.2095C18.9153 19.5824 21.3559 19.5824 22.5763 20.5993C23.3898 17.1417 21.3559 16.1247 21.3559 16.1247ZM18.5736 5.75186C18.8786 3.0061 19.7939 1.68407 20.6075 1.27729C21.421 0.870509 21.8278 2.09085 21.8278 2.09085C19.9973 2.49763 19.8488 4.43797 19.8712 5.26983C19.8725 5.42519 19.9238 5.57598 20.0176 5.69983C20.1114 5.82368 20.2427 5.91397 20.3919 5.95729C20.6705 6.03254 21.0753 6.02644 21.6244 5.7539C21.0142 8.39797 18.5736 9.61831 16.743 9.8217C17.9634 9.61627 18.3925 7.38102 18.5736 5.75186ZM2.44068 5.75186C2.98983 6.02644 3.39458 6.03254 3.67322 5.95525C3.82259 5.91223 3.95402 5.82201 4.04787 5.6981C4.14172 5.57419 4.19295 5.42323 4.1939 5.2678C4.21627 4.43797 4.0678 2.48746 2.23729 2.09085C2.23729 2.09085 2.64407 0.870509 3.45763 1.27729C4.27119 1.68407 5.18644 3.0061 5.49153 5.75186C5.67254 7.37898 6.10169 9.61627 7.32203 9.81966C5.49153 9.61627 3.05085 8.39593 2.44068 5.75186ZM10.3729 13.4807C9.55932 13.2773 8.13559 12.2603 4.88136 13.8875C4.88136 13.8875 8.74576 10.2264 10.3729 13.4807ZM8.33898 17.518C8.4865 17.4799 8.62037 17.4011 8.72532 17.2907C8.83028 17.1802 8.90211 17.0425 8.93264 16.8933C8.96317 16.744 8.95117 16.5891 8.898 16.4464C8.84484 16.3036 8.75265 16.1786 8.63193 16.0856C8.51121 15.9927 8.36681 15.9355 8.21518 15.9206C8.06355 15.9057 7.91078 15.9337 7.77427 16.0013C7.63776 16.069 7.52299 16.1736 7.44304 16.3033C7.36309 16.433 7.32116 16.5826 7.32203 16.7349C7.32225 16.8396 7.34298 16.9433 7.38305 17.04L5.28814 15.1078C5.28814 15.1078 10.3729 14.2942 10.3729 17.5485H8.68881C8.57151 17.5491 8.45441 17.5389 8.33898 17.518ZM10.3729 20.3959C9.9661 22.2264 9.76271 22.6332 9.76271 22.6332C9.76271 22.6332 10.5763 19.5824 9.15254 18.5654C9.15254 18.5654 10.7797 18.5654 10.3729 20.3959ZM14.4407 28.8814C14.4306 28.7423 14.3849 28.6082 14.3081 28.4919C14.2313 28.3756 14.1258 28.281 14.0019 28.2171C13.878 28.1532 13.7397 28.1223 13.6004 28.1272C13.4611 28.1322 13.3254 28.1728 13.2063 28.2453C13.0872 28.3178 12.9888 28.4196 12.9204 28.5411C12.852 28.6626 12.8159 28.7996 12.8157 28.939C12.8155 29.0784 12.8511 29.2155 12.9191 29.3372C12.9871 29.4589 13.0852 29.561 13.2041 29.6339C12.811 29.7219 12.4089 29.7635 12.0061 29.758C11.6033 29.7635 11.2012 29.7219 10.8081 29.6339C10.9248 29.5594 11.0205 29.4563 11.0862 29.3345C11.1519 29.2127 11.1854 29.0761 11.1836 28.9377C11.1818 28.7993 11.1447 28.6636 11.0758 28.5435C11.007 28.4235 10.9086 28.3229 10.79 28.2515C10.6715 28.1801 10.5366 28.14 10.3983 28.1352C10.26 28.1305 10.1227 28.161 9.99947 28.2241C9.87625 28.2872 9.77116 28.3806 9.69414 28.4956C9.61712 28.6106 9.57071 28.7434 9.55932 28.8814C9.4115 28.6601 9.34008 28.3965 9.35593 28.1308C9.35593 28.1308 9.55932 26.9105 12 26.9105C14.4407 26.9105 14.6441 28.1308 14.6441 28.1308C14.6599 28.3965 14.5885 28.6601 14.4407 28.8814ZM14.3085 22.6393C14.3085 22.6393 14.1051 22.2325 13.6983 20.402C13.2915 18.5715 14.9186 18.5715 14.9186 18.5715C13.4888 19.5824 14.3024 22.6332 14.3024 22.6332L14.3085 22.6393ZM16.6881 17.0359C16.7282 16.9392 16.7489 16.8356 16.7492 16.7308C16.75 16.5785 16.7081 16.4289 16.6281 16.2992C16.5482 16.1696 16.4334 16.0649 16.2969 15.9973C16.1604 15.9296 16.0076 15.9016 15.856 15.9165C15.7044 15.9314 15.56 15.9886 15.4393 16.0816C15.3185 16.1745 15.2263 16.2995 15.1732 16.4423C15.12 16.5851 15.108 16.7399 15.1385 16.8892C15.1691 17.0385 15.2409 17.1762 15.3459 17.2866C15.4508 17.3971 15.5847 17.4758 15.7322 17.5139C15.6201 17.5342 15.5064 17.5444 15.3925 17.5444H13.6922C13.6922 14.2902 18.7769 15.1037 18.7769 15.1037L16.6881 17.0359ZM13.6922 13.4807C15.3193 10.2264 19.1837 13.8875 19.1837 13.8875C15.9295 12.2603 14.5058 13.2773 13.6922 13.4807Z" fill="white"/>
</svg>
