<svg width="15" height="14" viewBox="0 0 15 14" fill="none" xmlns="http://www.w3.org/2000/svg">
<path d="M5.7 5.3C5.3 4.9 4.7 4.9 4.3 5.3C3.9 5.7 3.9 6.3 4.3 6.7L6.3 8.7C6.5 8.9 6.7 9 7 9C7.3 9 7.5 8.9 7.7 8.7L14.7 1.7C15.1 1.3 15.1 0.7 14.7 0.3C14.3 -0.1 13.7 -0.1 13.3 0.3L7 6.6L5.7 5.3Z" fill="#2952E8"/>
<path d="M7 14C10.9 14 14 10.9 14 7C14 6.4 13.6 6 13 6C12.4 6 12 6.4 12 7C12 9.8 9.8 12 7 12C4.2 12 2 9.8 2 7C2 4.2 4.2 2 7 2C7.6 2 8.1 2.1 8.7 2.3C9.2 2.5 9.8 2.2 10 1.7C10.2 1.2 9.9 0.6 9.4 0.4C8.6 0.1 7.8 0 7 0C3.1 0 0 3.1 0 7C0 10.9 3.1 14 7 14Z" fill="#2952E8"/>
</svg>
