<svg width="391" height="252" viewBox="0 0 391 252" fill="none" xmlns="http://www.w3.org/2000/svg">
<path d="M117.3 148.422C117.039 148.44 116.777 148.4 116.532 148.307C116.287 148.213 116.064 148.068 115.879 147.88C115.694 147.692 115.551 147.466 115.459 147.218C115.367 146.969 115.328 146.703 115.345 146.438V92.8632H34.4472V146.438C34.4472 146.964 34.2412 147.469 33.8746 147.841C33.508 148.213 33.0107 148.422 32.4922 148.422C31.9737 148.422 31.4765 148.213 31.1098 147.841C30.7432 147.469 30.5372 146.964 30.5372 146.438V90.8789C30.5199 90.6138 30.5587 90.348 30.6508 90.0993C30.7429 89.8507 30.8863 89.6248 31.0715 89.4369C31.2566 89.2491 31.4791 89.1035 31.7241 89.01C31.9691 88.9165 32.231 88.8772 32.4922 88.8947H117.3C117.561 88.8772 117.823 88.9165 118.068 89.01C118.313 89.1035 118.536 89.2491 118.721 89.4369C118.906 89.6248 119.049 89.8507 119.142 90.0993C119.234 90.348 119.272 90.6138 119.255 90.8789V146.438C119.272 146.703 119.234 146.969 119.142 147.218C119.049 147.466 118.906 147.692 118.721 147.88C118.536 148.068 118.313 148.213 118.068 148.307C117.823 148.4 117.561 148.44 117.3 148.422Z" fill="#A4B1C6"/>
<path d="M117.3 109.134H86.2549C85.9937 109.151 85.7318 109.112 85.4868 109.019C85.2418 108.925 85.0193 108.78 84.8341 108.592C84.649 108.404 84.5056 108.178 84.4135 107.929C84.3214 107.681 84.2826 107.415 84.2999 107.15V90.8788C84.2999 90.3525 84.5059 89.8478 84.8725 89.4757C85.2391 89.1036 85.7364 88.8945 86.2549 88.8945C86.7734 88.8945 87.2707 89.1036 87.6373 89.4757C88.0039 89.8478 88.2099 90.3525 88.2099 90.8788V105.165H117.3C117.819 105.165 118.316 105.374 118.683 105.747C119.049 106.119 119.255 106.623 119.255 107.15C119.255 107.676 119.049 108.181 118.683 108.553C118.316 108.925 117.819 109.134 117.3 109.134Z" fill="#A4B1C6"/>
<path d="M103.068 100.999H100.722C100.203 100.999 99.7058 100.79 99.3392 100.418C98.9726 100.046 98.7666 99.5409 98.7666 99.0147C98.7666 98.4884 98.9726 97.9837 99.3392 97.6116C99.7058 97.2395 100.203 97.0304 100.722 97.0304H103.068C103.329 97.0129 103.591 97.0522 103.836 97.1457C104.081 97.2392 104.303 97.3848 104.488 97.5727C104.673 97.7605 104.817 97.9864 104.909 98.2351C105.001 98.4838 105.04 98.7496 105.023 99.0147C105.023 99.5409 104.817 100.046 104.45 100.418C104.083 100.79 103.586 100.999 103.068 100.999Z" fill="#A4B1C6"/>
<path d="M117.3 125.206H86.2549C85.9937 125.224 85.7318 125.184 85.4868 125.091C85.2418 124.997 85.0193 124.852 84.8341 124.664C84.649 124.476 84.5056 124.25 84.4135 124.002C84.3214 123.753 84.2826 123.487 84.2999 123.222V106.951C84.2999 106.425 84.5059 105.92 84.8725 105.548C85.2391 105.176 85.7364 104.967 86.2549 104.967C86.7734 104.967 87.2707 105.176 87.6373 105.548C88.0039 105.92 88.2099 106.425 88.2099 106.951V121.238H117.3C117.819 121.238 118.316 121.447 118.683 121.819C119.049 122.191 119.255 122.696 119.255 123.222C119.255 123.748 119.049 124.253 118.683 124.625C118.316 124.997 117.819 125.206 117.3 125.206Z" fill="#A4B1C6"/>
<path d="M103.068 117.269H100.722C100.203 117.269 99.7058 117.06 99.3392 116.688C98.9726 116.316 98.7666 115.811 98.7666 115.285C98.7666 114.759 98.9726 114.254 99.3392 113.882C99.7058 113.51 100.203 113.301 100.722 113.301H103.068C103.329 113.283 103.591 113.323 103.836 113.416C104.081 113.51 104.303 113.655 104.488 113.843C104.673 114.031 104.817 114.257 104.909 114.506C105.001 114.754 105.04 115.02 105.023 115.285C105.023 115.811 104.817 116.316 104.45 116.688C104.083 117.06 103.586 117.269 103.068 117.269Z" fill="#A4B1C6"/>
<path d="M117.3 141.478H86.2549C85.9937 141.495 85.7318 141.456 85.4868 141.362C85.2418 141.269 85.0193 141.123 84.8341 140.935C84.649 140.748 84.5056 140.522 84.4135 140.273C84.3214 140.024 84.2826 139.759 84.2999 139.493V123.223C84.2999 122.696 84.5059 122.192 84.8725 121.819C85.2391 121.447 85.7364 121.238 86.2549 121.238C86.7734 121.238 87.2707 121.447 87.6373 121.819C88.0039 122.192 88.2099 122.696 88.2099 123.223V137.509H117.3C117.819 137.509 118.316 137.718 118.683 138.09C119.049 138.462 119.255 138.967 119.255 139.493C119.255 140.02 119.049 140.524 118.683 140.896C118.316 141.269 117.819 141.478 117.3 141.478Z" fill="#A4B1C6"/>
<path d="M103.068 133.342H100.722C100.203 133.342 99.7058 133.133 99.3392 132.761C98.9726 132.388 98.7666 131.884 98.7666 131.357C98.7666 130.831 98.9726 130.327 99.3392 129.954C99.7058 129.582 100.203 129.373 100.722 129.373H103.068C103.329 129.356 103.591 129.395 103.836 129.488C104.081 129.582 104.303 129.728 104.488 129.915C104.673 130.103 104.817 130.329 104.909 130.578C105.001 130.827 105.04 131.092 105.023 131.357C105.023 131.884 104.817 132.388 104.45 132.761C104.083 133.133 103.586 133.342 103.068 133.342Z" fill="#A4B1C6"/>
<path d="M86.2549 148.422C85.9937 148.44 85.7318 148.4 85.4868 148.307C85.2418 148.213 85.0193 148.068 84.8341 147.88C84.649 147.692 84.5056 147.466 84.4135 147.218C84.3214 146.969 84.2826 146.703 84.2999 146.438V139.493C84.2999 138.967 84.5059 138.462 84.8725 138.09C85.2391 137.718 85.7364 137.509 86.2549 137.509C86.7734 137.509 87.2707 137.718 87.6373 138.09C88.0039 138.462 88.2099 138.967 88.2099 139.493V146.438C88.2272 146.703 88.1885 146.969 88.0963 147.218C88.0042 147.466 87.8608 147.692 87.6757 147.88C87.4906 148.068 87.268 148.213 87.023 148.307C86.778 148.4 86.5161 148.44 86.2549 148.422Z" fill="#A4B1C6"/>
<path d="M227.484 188.306H141.464C141.203 188.323 140.941 188.284 140.696 188.191C140.451 188.097 140.228 187.952 140.043 187.764C139.858 187.576 139.715 187.35 139.622 187.101C139.53 186.853 139.492 186.587 139.509 186.322V165.884C139.492 165.619 139.53 165.353 139.622 165.104C139.715 164.856 139.858 164.63 140.043 164.442C140.228 164.254 140.451 164.108 140.696 164.015C140.941 163.921 141.203 163.882 141.464 163.9H227.484C227.745 163.882 228.007 163.921 228.252 164.015C228.497 164.108 228.72 164.254 228.905 164.442C229.09 164.63 229.233 164.856 229.325 165.104C229.417 165.353 229.456 165.619 229.439 165.884V186.322C229.403 186.836 229.185 187.319 228.826 187.684C228.467 188.048 227.99 188.269 227.484 188.306ZM143.419 184.337H225.529V167.868H143.419V184.337Z" fill="#A4B1C6"/>
<path d="M213.212 139.89H205.783C205.265 139.89 204.768 139.681 204.401 139.309C204.034 138.936 203.828 138.432 203.828 137.905C203.828 137.379 204.034 136.874 204.401 136.502C204.768 136.13 205.265 135.921 205.783 135.921H211.257V119.65H157.69V135.921H162.578C163.096 135.921 163.594 136.13 163.96 136.502C164.327 136.874 164.533 137.379 164.533 137.905C164.533 138.432 164.327 138.936 163.96 139.309C163.594 139.681 163.096 139.89 162.578 139.89H155.735C155.474 139.907 155.212 139.868 154.967 139.774C154.722 139.681 154.5 139.535 154.315 139.347C154.129 139.16 153.986 138.934 153.894 138.685C153.802 138.436 153.763 138.171 153.78 137.905V117.666C153.763 117.401 153.802 117.135 153.894 116.886C153.986 116.638 154.129 116.412 154.315 116.224C154.5 116.036 154.722 115.891 154.967 115.797C155.212 115.704 155.474 115.664 155.735 115.682H213.095C213.356 115.664 213.618 115.704 213.863 115.797C214.108 115.891 214.331 116.036 214.516 116.224C214.701 116.412 214.844 116.638 214.936 116.886C215.029 117.135 215.067 117.401 215.05 117.666V137.905C215.09 138.165 215.071 138.43 214.994 138.681C214.918 138.932 214.786 139.162 214.609 139.353C214.431 139.544 214.214 139.692 213.972 139.785C213.73 139.878 213.47 139.914 213.212 139.89Z" fill="#A4B1C6"/>
<path d="M189.635 139.89H179.469C178.95 139.89 178.453 139.681 178.086 139.308C177.72 138.936 177.514 138.432 177.514 137.905C177.514 137.379 177.72 136.874 178.086 136.502C178.453 136.13 178.95 135.921 179.469 135.921H189.635C189.896 135.904 190.158 135.943 190.403 136.036C190.648 136.13 190.87 136.275 191.055 136.463C191.241 136.651 191.384 136.877 191.476 137.126C191.568 137.374 191.607 137.64 191.59 137.905C191.59 138.432 191.384 138.936 191.017 139.308C190.65 139.681 190.153 139.89 189.635 139.89Z" fill="#A4B1C6"/>
<path d="M227.484 167.868H141.464C141.116 167.847 140.778 167.747 140.473 167.575C140.169 167.404 139.906 167.165 139.705 166.876C139.514 166.581 139.412 166.237 139.412 165.884C139.412 165.531 139.514 165.186 139.705 164.892L153.976 136.914C154.27 136.602 154.657 136.397 155.076 136.328C155.496 136.259 155.926 136.331 156.302 136.533C156.678 136.735 156.979 137.056 157.159 137.447C157.339 137.838 157.388 138.278 157.3 138.7L144.788 163.9H224.161L211.453 138.898C211.365 138.476 211.414 138.036 211.594 137.645C211.774 137.254 212.075 136.934 212.451 136.732C212.826 136.53 213.257 136.458 213.677 136.526C214.096 136.595 214.483 136.801 214.777 137.112L229.048 165.09C229.193 165.4 229.268 165.739 229.268 166.082C229.268 166.425 229.193 166.764 229.048 167.074C228.877 167.332 228.643 167.541 228.369 167.68C228.095 167.819 227.79 167.884 227.484 167.868Z" fill="#A4B1C6"/>
<path d="M153.976 196.242C153.714 196.26 153.453 196.221 153.207 196.127C152.962 196.034 152.74 195.888 152.555 195.7C152.37 195.512 152.226 195.286 152.134 195.038C152.042 194.789 152.003 194.523 152.021 194.258V186.321C152.021 185.795 152.227 185.29 152.593 184.918C152.96 184.546 153.457 184.337 153.976 184.337C154.494 184.337 154.991 184.546 155.358 184.918C155.725 185.29 155.931 185.795 155.931 186.321V194.258C155.948 194.523 155.909 194.789 155.817 195.038C155.725 195.286 155.581 195.512 155.396 195.7C155.211 195.888 154.989 196.034 154.744 196.127C154.499 196.221 154.237 196.26 153.976 196.242Z" fill="#A4B1C6"/>
<path d="M215.05 196.242C214.789 196.26 214.527 196.221 214.282 196.127C214.037 196.034 213.814 195.888 213.629 195.7C213.444 195.512 213.301 195.286 213.208 195.038C213.116 194.789 213.078 194.523 213.095 194.258V186.321C213.095 185.795 213.301 185.29 213.667 184.918C214.034 184.546 214.531 184.337 215.05 184.337C215.568 184.337 216.066 184.546 216.432 184.918C216.799 185.29 217.005 185.795 217.005 186.321V194.258C217.005 194.784 216.799 195.289 216.432 195.661C216.066 196.033 215.568 196.242 215.05 196.242Z" fill="#A4B1C6"/>
<path d="M179.391 144.453H163.946C163.685 144.471 163.423 144.432 163.178 144.338C162.933 144.245 162.711 144.099 162.526 143.911C162.34 143.723 162.197 143.498 162.105 143.249C162.013 143 161.974 142.734 161.991 142.469V133.54C161.974 133.275 162.013 133.009 162.105 132.76C162.197 132.512 162.34 132.286 162.526 132.098C162.711 131.91 162.933 131.765 163.178 131.671C163.423 131.578 163.685 131.538 163.946 131.556H179.391C179.652 131.538 179.914 131.578 180.159 131.671C180.404 131.765 180.626 131.91 180.812 132.098C180.997 132.286 181.14 132.512 181.232 132.76C181.324 133.009 181.363 133.275 181.346 133.54V142.469C181.346 142.995 181.14 143.5 180.773 143.872C180.407 144.244 179.909 144.453 179.391 144.453ZM165.901 140.485H177.436V135.524H165.901V140.485Z" fill="#A4B1C6"/>
<path d="M205.001 144.453H189.635C189.374 144.471 189.112 144.432 188.867 144.338C188.622 144.245 188.399 144.099 188.214 143.911C188.029 143.723 187.886 143.498 187.793 143.249C187.701 143 187.663 142.734 187.68 142.469V133.54C187.663 133.275 187.701 133.009 187.793 132.76C187.886 132.512 188.029 132.286 188.214 132.098C188.399 131.91 188.622 131.765 188.867 131.671C189.112 131.578 189.374 131.538 189.635 131.556H205.079C205.34 131.538 205.602 131.578 205.847 131.671C206.092 131.765 206.315 131.91 206.5 132.098C206.685 132.286 206.829 132.512 206.921 132.76C207.013 133.009 207.052 133.275 207.034 133.54V142.469C207.035 142.737 206.981 143.001 206.878 143.247C206.775 143.493 206.624 143.716 206.434 143.901C206.244 144.086 206.02 144.231 205.773 144.326C205.527 144.421 205.264 144.464 205.001 144.453ZM191.512 140.485H203.046V135.524H191.59L191.512 140.485Z" fill="#A4B1C6"/>
<path d="M248.09 141.477H226.585C226.066 141.477 225.569 141.268 225.202 140.896C224.836 140.524 224.63 140.019 224.63 139.493V117.666C224.63 117.14 224.836 116.635 225.202 116.263C225.569 115.891 226.066 115.682 226.585 115.682H248.09C248.608 115.682 249.106 115.891 249.472 116.263C249.839 116.635 250.045 117.14 250.045 117.666V139.493C250.045 140.019 249.839 140.524 249.472 140.896C249.106 141.268 248.608 141.477 248.09 141.477ZM228.54 137.508H246.135V119.65H228.54V137.508Z" fill="#A4B1C6"/>
<path d="M230.495 147.033C229.977 147.033 229.479 146.824 229.113 146.452C228.746 146.079 228.54 145.575 228.54 145.048V141.08C228.54 140.554 228.746 140.049 229.113 139.677C229.479 139.305 229.977 139.096 230.495 139.096C231.014 139.096 231.511 139.305 231.877 139.677C232.244 140.049 232.45 140.554 232.45 141.08V145.048C232.45 145.575 232.244 146.079 231.877 146.452C231.511 146.824 231.014 147.033 230.495 147.033Z" fill="#A4B1C6"/>
<path d="M244.18 147.033C243.661 147.033 243.164 146.824 242.797 146.452C242.431 146.079 242.225 145.575 242.225 145.048V141.08C242.225 140.554 242.431 140.049 242.797 139.677C243.164 139.305 243.661 139.096 244.18 139.096C244.698 139.096 245.195 139.305 245.562 139.677C245.929 140.049 246.135 140.554 246.135 141.08V145.048C246.135 145.575 245.929 146.079 245.562 146.452C245.195 146.824 244.698 147.033 244.18 147.033Z" fill="#A4B1C6"/>
<path d="M234.6 128.579C234.582 128.314 234.621 128.048 234.713 127.8C234.805 127.551 234.949 127.325 235.134 127.137C235.319 126.949 235.542 126.804 235.787 126.71C236.032 126.617 236.293 126.577 236.555 126.595H238.314C238.833 126.595 239.33 126.804 239.697 127.176C240.063 127.548 240.269 128.053 240.269 128.579C240.269 129.105 240.063 129.61 239.697 129.982C239.33 130.354 238.833 130.563 238.314 130.563H236.555C236.293 130.581 236.032 130.542 235.787 130.448C235.542 130.355 235.319 130.209 235.134 130.021C234.949 129.833 234.805 129.607 234.713 129.359C234.621 129.11 234.582 128.844 234.6 128.579Z" fill="#A4B1C6"/>
<path d="M212.9 97.427H156.205C155.687 97.427 155.189 97.2179 154.823 96.8458C154.456 96.4737 154.25 95.969 154.25 95.4427V55.7577C154.25 55.2314 154.456 54.7267 154.823 54.3546C155.189 53.9825 155.687 53.7734 156.205 53.7734H212.9C213.418 53.7734 213.916 53.9825 214.282 54.3546C214.649 54.7267 214.855 55.2314 214.855 55.7577V95.4427C214.855 95.969 214.649 96.4737 214.282 96.8458C213.916 97.2179 213.418 97.427 212.9 97.427ZM158.16 93.4585H210.945V57.7419H158.16V93.4585Z" fill="#A4B1C6"/>
<path d="M344.237 110.92H284.805C284.544 110.937 284.282 110.898 284.037 110.804C283.792 110.711 283.569 110.565 283.384 110.377C283.199 110.189 283.055 109.964 282.963 109.715C282.871 109.466 282.832 109.2 282.85 108.935V76.3936C282.832 76.1285 282.871 75.8627 282.963 75.614C283.055 75.3653 283.199 75.1395 283.384 74.9516C283.569 74.7637 283.792 74.6181 284.037 74.5246C284.282 74.4311 284.544 74.3918 284.805 74.4093H344.08C344.342 74.3918 344.603 74.4311 344.848 74.5246C345.093 74.6181 345.316 74.7637 345.501 74.9516C345.686 75.1395 345.83 75.3653 345.922 75.614C346.014 75.8627 346.053 76.1285 346.035 76.3936V108.935C346.057 109.188 346.027 109.443 345.946 109.683C345.865 109.923 345.736 110.143 345.567 110.33C345.398 110.517 345.192 110.666 344.963 110.767C344.734 110.869 344.487 110.921 344.237 110.92ZM286.76 106.951H342.125V78.3778H286.799L286.76 106.951Z" fill="#A4B1C6"/>
<path d="M322.144 119.849H306.935C306.673 119.867 306.412 119.827 306.166 119.734C305.921 119.64 305.699 119.495 305.514 119.307C305.329 119.119 305.185 118.893 305.093 118.644C305.001 118.396 304.962 118.13 304.98 117.865V108.936C304.962 108.67 305.001 108.405 305.093 108.156C305.185 107.907 305.329 107.681 305.514 107.494C305.699 107.306 305.921 107.16 306.166 107.067C306.412 106.973 306.673 106.934 306.935 106.951H322.184C322.445 106.934 322.707 106.973 322.952 107.067C323.197 107.16 323.419 107.306 323.604 107.494C323.789 107.681 323.933 107.907 324.025 108.156C324.117 108.405 324.156 108.67 324.139 108.936V117.865C324.101 118.385 323.878 118.874 323.511 119.239C323.144 119.605 322.658 119.821 322.144 119.849ZM308.85 115.88H320.189V110.92H308.89L308.85 115.88Z" fill="#A4B1C6"/>
<path d="M358.508 141.675H270.533C270.272 141.693 270.01 141.654 269.765 141.56C269.52 141.467 269.298 141.321 269.112 141.133C268.927 140.945 268.784 140.719 268.692 140.471C268.6 140.222 268.561 139.956 268.578 139.691V117.864C268.561 117.599 268.6 117.333 268.692 117.085C268.784 116.836 268.927 116.61 269.112 116.422C269.298 116.234 269.52 116.089 269.765 115.995C270.01 115.902 270.272 115.863 270.533 115.88H358.508C358.769 115.863 359.031 115.902 359.276 115.995C359.521 116.089 359.744 116.234 359.929 116.422C360.114 116.61 360.257 116.836 360.35 117.085C360.442 117.333 360.48 117.599 360.463 117.864V139.691C360.463 140.217 360.257 140.722 359.891 141.094C359.524 141.466 359.027 141.675 358.508 141.675ZM272.488 137.707H356.553V119.849H272.488V137.707Z" fill="#A4B1C6"/>
<path d="M284.805 147.033C284.544 147.051 284.282 147.011 284.037 146.918C283.792 146.824 283.569 146.679 283.384 146.491C283.199 146.303 283.055 146.077 282.963 145.828C282.871 145.58 282.832 145.314 282.85 145.049V139.493C282.85 138.302 283.221 137.707 284.394 137.707C285.567 137.707 286.76 138.302 286.76 139.493V145.049C286.777 145.314 286.738 145.58 286.646 145.828C286.554 146.077 286.411 146.303 286.225 146.491C286.04 146.679 285.818 146.824 285.573 146.918C285.328 147.011 285.066 147.051 284.805 147.033Z" fill="#A4B1C6"/>
<path d="M344.236 147.033C343.975 147.051 343.713 147.011 343.468 146.918C343.223 146.824 343.001 146.679 342.816 146.491C342.63 146.303 342.487 146.077 342.395 145.828C342.303 145.58 342.264 145.314 342.281 145.049V139.493C342.281 138.302 343.826 137.707 344.999 137.707C346.172 137.707 346.191 138.302 346.191 139.493V145.049C346.191 145.575 345.985 146.08 345.619 146.452C345.252 146.824 344.755 147.033 344.236 147.033Z" fill="#A4B1C6"/>
</svg>
