<svg width="391" height="252" viewBox="0 0 391 252" fill="none" xmlns="http://www.w3.org/2000/svg">
<path d="M69.6956 166.955C69.42 166.985 69.143 166.915 68.9136 166.757C68.4522 166.54 68.0921 166.15 67.9096 165.668C67.7271 165.187 67.7366 164.652 67.9361 164.177L72.2371 154.653C72.6281 153.661 73.1755 153.661 74.1921 154.058C75.2087 154.454 76.1471 155.248 75.7952 156.24L71.4942 165.765C71.3416 166.12 71.0899 166.421 70.7703 166.633C70.4507 166.844 70.0771 166.956 69.6956 166.955Z" fill="#A4B1C6"/>
<path d="M133.233 166.955C132.859 166.949 132.493 166.833 132.181 166.622C131.869 166.411 131.624 166.113 131.474 165.765L127.173 156.24C126.782 155.248 127.916 154.454 128.893 154.058C129.871 153.661 130.301 153.661 130.692 154.653L134.993 164.177C135.192 164.652 135.202 165.187 135.019 165.668C134.837 166.15 134.477 166.54 134.015 166.757C133.786 166.915 133.509 166.985 133.233 166.955Z" fill="#A4B1C6"/>
<path d="M143.79 130.643C143.529 130.66 143.267 130.621 143.022 130.528C142.777 130.434 142.554 130.289 142.369 130.101C142.184 129.913 142.041 129.687 141.949 129.438C141.857 129.19 141.818 128.924 141.835 128.659V125.285C141.825 122.605 140.771 120.037 138.903 118.141C137.036 116.246 134.506 115.176 131.865 115.166H72.0416C69.4005 115.176 66.8704 116.246 65.0028 118.141C63.1352 120.037 62.0814 122.605 62.0711 125.285V128.46C62.0711 128.986 61.8652 129.491 61.4985 129.863C61.1319 130.235 60.6346 130.444 60.1161 130.444C59.5976 130.444 59.1004 130.235 58.7337 129.863C58.3671 129.491 58.1611 128.986 58.1611 128.46V125.285C58.1766 121.554 59.6439 117.98 62.2437 115.341C64.8435 112.702 68.365 111.213 72.0416 111.197H132.06C135.737 111.213 139.258 112.702 141.858 115.341C144.458 117.98 145.925 121.554 145.941 125.285V128.46C145.904 129.027 145.666 129.561 145.27 129.962C144.874 130.364 144.348 130.606 143.79 130.643Z" fill="#A4B1C6"/>
<path d="M145.941 157.629H57.9658C57.7046 157.646 57.4428 157.607 57.1977 157.513C56.9527 157.42 56.7302 157.274 56.5451 157.087C56.36 156.899 56.2166 156.673 56.1244 156.424C56.0323 156.175 55.9936 155.91 56.0108 155.645V129.254C55.9936 128.989 56.0323 128.723 56.1244 128.474C56.2166 128.226 56.36 128 56.5451 127.812C56.7302 127.624 56.9527 127.478 57.1977 127.385C57.4428 127.291 57.7046 127.252 57.9658 127.27H66.9588C67.22 127.252 67.4819 127.291 67.727 127.385C67.972 127.478 68.1945 127.624 68.3796 127.812C68.5647 128 68.7081 128.226 68.8003 128.474C68.8924 128.723 68.9311 128.989 68.9138 129.254V140.366H135.188V129.254C135.171 128.989 135.21 128.723 135.302 128.474C135.394 128.226 135.537 128 135.723 127.812C135.908 127.624 136.13 127.478 136.375 127.385C136.62 127.291 136.882 127.252 137.143 127.27H146.136C146.398 127.252 146.659 127.291 146.904 127.385C147.149 127.478 147.372 127.624 147.557 127.812C147.742 128 147.886 128.226 147.978 128.474C148.07 128.723 148.109 128.989 148.091 129.254V155.645C148.011 156.175 147.754 156.662 147.363 157.024C146.971 157.385 146.469 157.598 145.941 157.629ZM59.9208 153.66H143.986V131.238H138.903V142.35C138.92 142.615 138.881 142.881 138.789 143.13C138.697 143.378 138.554 143.604 138.369 143.792C138.184 143.98 137.961 144.125 137.716 144.219C137.471 144.312 137.209 144.352 136.948 144.334H66.9588C66.6976 144.352 66.4358 144.312 66.1907 144.219C65.9457 144.125 65.7232 143.98 65.5381 143.792C65.353 143.604 65.2096 143.378 65.1174 143.13C65.0253 142.881 64.9866 142.615 65.0038 142.35V131.238H59.9208V153.66Z" fill="#A4B1C6"/>
<path d="M101.953 134.016C101.692 134.034 101.43 133.994 101.185 133.901C100.94 133.807 100.717 133.662 100.532 133.474C100.347 133.286 100.204 133.06 100.112 132.812C100.02 132.563 99.9809 132.297 99.9981 132.032V125.008C99.9981 124.481 100.204 123.977 100.571 123.605C100.937 123.232 101.435 123.023 101.953 123.023C102.472 123.023 102.969 123.232 103.336 123.605C103.702 123.977 103.908 124.481 103.908 125.008V131.953C103.937 132.224 103.908 132.499 103.821 132.757C103.734 133.016 103.592 133.252 103.406 133.448C103.22 133.645 102.993 133.798 102.742 133.896C102.491 133.994 102.222 134.035 101.953 134.016Z" fill="#A4B1C6"/>
<path d="M242.85 192.333H156.83C156.569 192.351 156.307 192.311 156.062 192.218C155.817 192.124 155.594 191.979 155.409 191.791C155.224 191.603 155.081 191.377 154.989 191.129C154.897 190.88 154.858 190.614 154.875 190.349V169.911C154.858 169.646 154.897 169.38 154.989 169.132C155.081 168.883 155.224 168.657 155.409 168.469C155.594 168.281 155.817 168.136 156.062 168.042C156.307 167.949 156.569 167.909 156.83 167.927H242.85C243.111 167.909 243.373 167.949 243.618 168.042C243.863 168.136 244.086 168.281 244.271 168.469C244.456 168.657 244.599 168.883 244.692 169.132C244.784 169.38 244.822 169.646 244.805 169.911V190.349C244.769 190.863 244.551 191.347 244.192 191.711C243.833 192.075 243.357 192.296 242.85 192.333ZM158.785 188.365H240.895V171.895H158.785V188.365Z" fill="#A4B1C6"/>
<path d="M228.579 143.918H221.15C220.631 143.918 220.134 143.709 219.767 143.337C219.401 142.965 219.195 142.46 219.195 141.934C219.195 141.407 219.401 140.903 219.767 140.531C220.134 140.159 220.631 139.949 221.15 139.949H226.624V123.679H173.057V139.949H177.905C178.424 139.949 178.921 140.159 179.287 140.531C179.654 140.903 179.86 141.407 179.86 141.934C179.86 142.46 179.654 142.965 179.287 143.337C178.921 143.709 178.424 143.918 177.905 143.918H171.063C170.801 143.936 170.539 143.896 170.294 143.803C170.049 143.709 169.827 143.564 169.642 143.376C169.457 143.188 169.313 142.962 169.221 142.713C169.129 142.465 169.09 142.199 169.108 141.934V121.694C169.09 121.429 169.129 121.163 169.221 120.915C169.313 120.666 169.457 120.44 169.642 120.252C169.827 120.064 170.049 119.919 170.294 119.825C170.539 119.732 170.801 119.693 171.063 119.71H228.344C228.605 119.693 228.867 119.732 229.112 119.825C229.357 119.919 229.58 120.064 229.765 120.252C229.95 120.44 230.093 120.666 230.185 120.915C230.278 121.163 230.316 121.429 230.299 121.694V141.934C230.336 142.183 230.319 142.437 230.249 142.679C230.179 142.92 230.058 143.144 229.894 143.333C229.73 143.522 229.528 143.672 229.3 143.773C229.073 143.874 228.827 143.924 228.579 143.918Z" fill="#A4B1C6"/>
<path d="M204.923 143.918H194.757C194.238 143.918 193.741 143.709 193.374 143.337C193.008 142.965 192.802 142.46 192.802 141.934C192.802 141.407 193.008 140.903 193.374 140.531C193.741 140.158 194.238 139.949 194.757 139.949H204.923C205.184 139.932 205.446 139.971 205.691 140.065C205.936 140.158 206.158 140.304 206.344 140.492C206.529 140.679 206.672 140.905 206.764 141.154C206.856 141.403 206.895 141.669 206.878 141.934C206.878 142.46 206.672 142.965 206.305 143.337C205.939 143.709 205.441 143.918 204.923 143.918Z" fill="#A4B1C6"/>
<path d="M242.85 171.895H156.83C156.483 171.874 156.144 171.774 155.839 171.603C155.535 171.431 155.272 171.192 155.071 170.903C154.88 170.609 154.778 170.264 154.778 169.911C154.778 169.559 154.88 169.214 155.071 168.919L169.342 140.882C169.637 140.57 170.023 140.364 170.443 140.296C170.862 140.227 171.293 140.299 171.668 140.501C172.044 140.703 172.345 141.024 172.525 141.415C172.705 141.806 172.754 142.245 172.666 142.667L160.154 167.867H239.527L226.78 142.866C226.692 142.444 226.741 142.004 226.921 141.613C227.101 141.222 227.402 140.901 227.778 140.7C228.154 140.498 228.584 140.426 229.004 140.494C229.423 140.563 229.81 140.769 230.104 141.08L244.375 169.058C244.52 169.368 244.595 169.707 244.595 170.05C244.595 170.393 244.52 170.732 244.375 171.042C244.215 171.305 243.99 171.522 243.723 171.671C243.456 171.821 243.155 171.898 242.85 171.895Z" fill="#A4B1C6"/>
<path d="M169.342 200.271C169.081 200.288 168.819 200.249 168.574 200.155C168.329 200.062 168.106 199.916 167.921 199.729C167.736 199.541 167.593 199.315 167.5 199.066C167.408 198.817 167.37 198.552 167.387 198.286V190.349C167.387 189.823 167.593 189.319 167.959 188.946C168.326 188.574 168.823 188.365 169.342 188.365C169.86 188.365 170.358 188.574 170.724 188.946C171.091 189.319 171.297 189.823 171.297 190.349V198.286C171.314 198.552 171.275 198.817 171.183 199.066C171.091 199.315 170.948 199.541 170.763 199.729C170.577 199.916 170.355 200.062 170.11 200.155C169.865 200.249 169.603 200.288 169.342 200.271Z" fill="#A4B1C6"/>
<path d="M230.338 200.271C230.077 200.288 229.815 200.249 229.57 200.155C229.325 200.062 229.102 199.916 228.917 199.729C228.732 199.541 228.589 199.315 228.496 199.066C228.404 198.817 228.366 198.552 228.383 198.286V190.349C228.383 189.823 228.589 189.319 228.956 188.946C229.322 188.574 229.819 188.365 230.338 188.365C230.856 188.365 231.354 188.574 231.72 188.946C232.087 189.319 232.293 189.823 232.293 190.349V198.286C232.293 198.813 232.087 199.317 231.72 199.69C231.354 200.062 230.856 200.271 230.338 200.271Z" fill="#A4B1C6"/>
<path d="M194.757 148.482H179.313C179.051 148.499 178.789 148.46 178.544 148.366C178.299 148.273 178.077 148.127 177.892 147.94C177.707 147.752 177.563 147.526 177.471 147.277C177.379 147.028 177.34 146.763 177.358 146.498V137.568C177.34 137.303 177.379 137.037 177.471 136.789C177.563 136.54 177.707 136.314 177.892 136.126C178.077 135.939 178.299 135.793 178.544 135.699C178.789 135.606 179.051 135.567 179.313 135.584H194.757C195.018 135.567 195.28 135.606 195.525 135.699C195.77 135.793 195.993 135.939 196.178 136.126C196.363 136.314 196.506 136.54 196.598 136.789C196.691 137.037 196.729 137.303 196.712 137.568V146.498C196.712 147.024 196.506 147.528 196.139 147.901C195.773 148.273 195.276 148.482 194.757 148.482ZM181.268 144.513H192.802V139.553H181.268V144.513Z" fill="#A4B1C6"/>
<path d="M220.367 148.482H204.923C204.662 148.499 204.4 148.46 204.155 148.366C203.91 148.273 203.687 148.127 203.502 147.94C203.317 147.752 203.174 147.526 203.081 147.277C202.989 147.028 202.951 146.763 202.968 146.498V137.568C202.951 137.303 202.989 137.037 203.081 136.789C203.174 136.54 203.317 136.314 203.502 136.126C203.687 135.939 203.91 135.793 204.155 135.699C204.4 135.606 204.662 135.567 204.923 135.584H220.367C220.629 135.567 220.89 135.606 221.135 135.699C221.381 135.793 221.603 135.939 221.788 136.126C221.973 136.314 222.117 136.54 222.209 136.789C222.301 137.037 222.34 137.303 222.322 137.568V146.498C222.322 147.024 222.116 147.528 221.75 147.901C221.383 148.273 220.886 148.482 220.367 148.482ZM206.878 144.513H218.412V139.553H206.878V144.513Z" fill="#A4B1C6"/>
<path d="M263.456 145.525H241.951C241.433 145.525 240.935 145.316 240.569 144.944C240.202 144.571 239.996 144.067 239.996 143.541V121.714C239.996 121.187 240.202 120.683 240.569 120.311C240.935 119.939 241.433 119.729 241.951 119.729H263.456C263.975 119.729 264.472 119.939 264.838 120.311C265.205 120.683 265.411 121.187 265.411 121.714V143.541C265.411 144.067 265.205 144.571 264.838 144.944C264.472 145.316 263.975 145.525 263.456 145.525ZM243.906 141.556H261.501V123.698H243.906V141.556Z" fill="#A4B1C6"/>
<path d="M245.861 151.081C245.343 151.081 244.845 150.872 244.479 150.499C244.112 150.127 243.906 149.623 243.906 149.096V145.128C243.906 144.602 244.112 144.097 244.479 143.725C244.845 143.353 245.343 143.144 245.861 143.144C246.38 143.144 246.877 143.353 247.244 143.725C247.61 144.097 247.816 144.602 247.816 145.128V149.096C247.816 149.623 247.61 150.127 247.244 150.499C246.877 150.872 246.38 151.081 245.861 151.081Z" fill="#A4B1C6"/>
<path d="M259.546 151.081C259.027 151.081 258.53 150.872 258.163 150.499C257.797 150.127 257.591 149.623 257.591 149.096V145.128C257.591 144.602 257.797 144.097 258.163 143.725C258.53 143.353 259.027 143.144 259.546 143.144C260.064 143.144 260.562 143.353 260.928 143.725C261.295 144.097 261.501 144.602 261.501 145.128V149.096C261.501 149.623 261.295 150.127 260.928 150.499C260.562 150.872 260.064 151.081 259.546 151.081Z" fill="#A4B1C6"/>
<path d="M249.868 132.627C249.851 132.362 249.89 132.096 249.982 131.847C250.074 131.599 250.217 131.373 250.403 131.185C250.588 130.997 250.81 130.852 251.055 130.758C251.3 130.665 251.562 130.625 251.823 130.643H253.583C254.101 130.643 254.599 130.852 254.965 131.224C255.332 131.596 255.538 132.101 255.538 132.627C255.538 133.153 255.332 133.658 254.965 134.03C254.599 134.402 254.101 134.611 253.583 134.611H251.823C251.562 134.629 251.3 134.589 251.055 134.496C250.81 134.402 250.588 134.257 250.403 134.069C250.217 133.881 250.074 133.655 249.982 133.407C249.89 133.158 249.851 132.892 249.868 132.627Z" fill="#A4B1C6"/>
<path d="M369.691 145.724H281.716C281.455 145.742 281.193 145.702 280.948 145.609C280.703 145.515 280.48 145.37 280.295 145.182C280.11 144.994 279.967 144.768 279.874 144.519C279.782 144.271 279.744 144.005 279.761 143.74V106.237C279.744 105.972 279.782 105.706 279.874 105.458C279.967 105.209 280.11 104.983 280.295 104.795C280.48 104.607 280.703 104.462 280.948 104.368C281.193 104.275 281.455 104.236 281.716 104.253H369.691C369.952 104.236 370.214 104.275 370.459 104.368C370.704 104.462 370.927 104.607 371.112 104.795C371.297 104.983 371.44 105.209 371.532 105.458C371.624 105.706 371.663 105.972 371.646 106.237V143.74C371.646 144.266 371.44 144.771 371.073 145.143C370.707 145.515 370.209 145.724 369.691 145.724ZM283.671 141.755H367.736V108.222H283.671V141.755Z" fill="#A4B1C6"/>
<path d="M291.687 151.081C291.425 151.098 291.163 151.059 290.918 150.966C290.673 150.872 290.451 150.726 290.266 150.539C290.081 150.351 289.937 150.125 289.845 149.876C289.753 149.628 289.714 149.362 289.732 149.097V143.739C289.732 143.213 289.938 142.708 290.304 142.336C290.671 141.964 291.168 141.755 291.687 141.755C292.205 141.755 292.702 141.964 293.069 142.336C293.436 142.708 293.642 143.213 293.642 143.739V149.097C293.642 149.623 293.436 150.128 293.069 150.5C292.702 150.872 292.205 151.081 291.687 151.081Z" fill="#A4B1C6"/>
<path d="M358.742 151.081C358.481 151.098 358.219 151.059 357.974 150.966C357.729 150.872 357.507 150.726 357.321 150.539C357.136 150.351 356.993 150.125 356.901 149.876C356.809 149.628 356.77 149.362 356.787 149.097V143.739C356.787 143.213 356.993 142.708 357.36 142.336C357.726 141.964 358.224 141.755 358.742 141.755C359.261 141.755 359.758 141.964 360.125 142.336C360.491 142.708 360.697 143.213 360.697 143.739V149.097C360.661 149.611 360.443 150.094 360.084 150.459C359.725 150.823 359.249 151.044 358.742 151.081Z" fill="#A4B1C6"/>
<path d="M338.02 129.651C337.758 129.668 337.496 129.629 337.251 129.535C337.006 129.442 336.784 129.296 336.599 129.108C336.414 128.921 336.27 128.695 336.178 128.446C336.086 128.197 336.047 127.932 336.065 127.666V123.896C336.065 123.37 336.271 122.865 336.637 122.493C337.004 122.121 337.501 121.912 338.02 121.912C338.538 121.912 339.035 122.121 339.402 122.493C339.769 122.865 339.975 123.37 339.975 123.896V127.666C339.992 127.932 339.953 128.197 339.861 128.446C339.769 128.695 339.625 128.921 339.44 129.108C339.255 129.296 339.033 129.442 338.788 129.535C338.543 129.629 338.281 129.668 338.02 129.651Z" fill="#A4B1C6"/>
<path d="M313.387 129.651C313.126 129.668 312.864 129.629 312.619 129.535C312.374 129.442 312.151 129.296 311.966 129.108C311.781 128.921 311.637 128.695 311.545 128.446C311.453 128.197 311.414 127.932 311.432 127.666V123.896C311.432 123.37 311.638 122.865 312.004 122.493C312.371 122.121 312.868 121.912 313.387 121.912C313.905 121.912 314.402 122.121 314.769 122.493C315.136 122.865 315.342 123.37 315.342 123.896V127.666C315.342 128.193 315.136 128.697 314.769 129.07C314.402 129.442 313.905 129.651 313.387 129.651Z" fill="#A4B1C6"/>
<path d="M352.682 97.7046H298.724C298.462 97.7221 298.201 97.6828 297.956 97.5893C297.711 97.4958 297.488 97.3502 297.303 97.1623C297.118 96.9744 296.974 96.7486 296.882 96.4999C296.79 96.2512 296.751 95.9854 296.769 95.7203V66.5518C296.751 66.2867 296.79 66.0209 296.882 65.7722C296.974 65.5235 297.118 65.2977 297.303 65.1098C297.488 64.9219 297.711 64.7763 297.956 64.6828C298.201 64.5893 298.462 64.55 298.724 64.5675H352.486C352.747 64.55 353.009 64.5893 353.254 64.6828C353.499 64.7763 353.722 64.9219 353.907 65.1098C354.092 65.2977 354.235 65.5235 354.328 65.7722C354.42 66.0209 354.458 66.2867 354.441 66.5518V95.7203C354.479 95.9727 354.461 96.2306 354.389 96.4752C354.317 96.7198 354.192 96.9451 354.024 97.1349C353.856 97.3247 353.648 97.4742 353.416 97.5727C353.184 97.6712 352.933 97.7163 352.682 97.7046ZM300.679 93.7361H350.531V68.536H300.679V93.7361Z" fill="#A4B1C6"/>
<path d="M325.703 145.724C325.442 145.741 325.18 145.702 324.935 145.609C324.69 145.515 324.467 145.369 324.282 145.182C324.097 144.994 323.954 144.768 323.862 144.519C323.77 144.27 323.731 144.005 323.748 143.74V106.237C323.748 105.711 323.954 105.206 324.321 104.834C324.687 104.462 325.185 104.253 325.703 104.253C326.222 104.253 326.719 104.462 327.086 104.834C327.452 105.206 327.658 105.711 327.658 106.237V143.74C327.658 144.266 327.452 144.771 327.086 145.143C326.719 145.515 326.222 145.724 325.703 145.724Z" fill="#A4B1C6"/>
<path d="M320.23 108.221C319.968 108.239 319.706 108.2 319.461 108.106C319.216 108.013 318.994 107.867 318.809 107.679C318.624 107.491 318.48 107.265 318.388 107.017C318.296 106.768 318.257 106.502 318.275 106.237V95.7206C318.275 95.1943 318.48 94.6896 318.847 94.3175C319.214 93.9454 319.711 93.7363 320.23 93.7363C320.748 93.7363 321.245 93.9454 321.612 94.3175C321.979 94.6896 322.185 95.1943 322.185 95.7206V106.237C322.148 106.751 321.931 107.235 321.571 107.599C321.212 107.964 320.736 108.185 320.23 108.221Z" fill="#A4B1C6"/>
<path d="M331.177 108.221C330.916 108.239 330.654 108.2 330.409 108.106C330.164 108.013 329.941 107.867 329.756 107.679C329.571 107.491 329.428 107.265 329.335 107.017C329.243 106.768 329.205 106.502 329.222 106.237V95.7206C329.222 95.1943 329.428 94.6896 329.794 94.3175C330.161 93.9454 330.658 93.7363 331.177 93.7363C331.695 93.7363 332.193 93.9454 332.559 94.3175C332.926 94.6896 333.132 95.1943 333.132 95.7206V106.237C333.132 106.763 332.926 107.268 332.559 107.64C332.193 108.012 331.695 108.221 331.177 108.221Z" fill="#A4B1C6"/>
<path d="M228.148 102.467H171.453C170.935 102.467 170.437 102.258 170.071 101.886C169.704 101.514 169.498 101.009 169.498 100.483V60.7977C169.498 60.2715 169.704 59.7668 170.071 59.3947C170.437 59.0225 170.935 58.8135 171.453 58.8135H228.148C228.667 58.8135 229.164 59.0225 229.53 59.3947C229.897 59.7668 230.103 60.2715 230.103 60.7977V100.483C230.103 101.009 229.897 101.514 229.53 101.886C229.164 102.258 228.667 102.467 228.148 102.467ZM173.408 98.4985H226.193V62.782H173.408V98.4985Z" fill="#A4B1C6"/>
<path d="M56.7924 166.955H29.8134C29.2949 166.955 28.7976 166.746 28.431 166.374C28.0644 166.002 27.8584 165.497 27.8584 164.971C27.8584 164.444 28.0644 163.94 28.431 163.568C28.7976 163.196 29.2949 162.986 29.8134 162.986H56.7924C57.0536 162.969 57.3155 163.008 57.5605 163.102C57.8055 163.195 58.0281 163.341 58.2132 163.529C58.3983 163.717 58.5417 163.942 58.6338 164.191C58.726 164.44 58.7647 164.706 58.7474 164.971C58.7474 165.497 58.5414 166.002 58.1748 166.374C57.8082 166.746 57.3109 166.955 56.7924 166.955Z" fill="#A4B1C6"/>
<path d="M43.3037 166.816C43.0425 166.834 42.7806 166.794 42.5356 166.701C42.2906 166.607 42.0681 166.462 41.883 166.274C41.6979 166.086 41.5545 165.86 41.4623 165.611C41.3702 165.363 41.3315 165.097 41.3487 164.832V93.0018C41.3487 92.4756 41.5547 91.9709 41.9213 91.5988C42.288 91.2266 42.7852 91.0176 43.3037 91.0176C43.8222 91.0176 44.3195 91.2266 44.6861 91.5988C45.0528 91.9709 45.2587 92.4756 45.2587 93.0018V164.832C45.276 165.097 45.2373 165.363 45.1452 165.611C45.053 165.86 44.9096 166.086 44.7245 166.274C44.5394 166.462 44.3169 166.607 44.0719 166.701C43.8268 166.794 43.5649 166.834 43.3037 166.816Z" fill="#A4B1C6"/>
<path d="M65.414 93.0021H21.231C20.63 92.9461 20.0717 92.6628 19.667 92.2084C19.4982 91.9473 19.3926 91.6495 19.3586 91.3392C19.3247 91.0289 19.3633 90.7148 19.4715 90.4225L31.397 53.1186C31.526 52.7005 31.7878 52.3375 32.1414 52.0862C32.4951 51.835 32.9207 51.7096 33.352 51.7296H53.684C54.1024 51.7625 54.5046 51.9087 54.8485 52.153C55.1923 52.3973 55.4653 52.7307 55.639 53.1186L67.1735 90.4225C67.3035 91.0234 67.2348 91.6511 66.978 92.2084C66.5732 92.6628 66.0149 92.9461 65.414 93.0021ZM23.968 89.0335H62.677L52.12 55.6981H34.525L23.968 89.0335Z" fill="#A4B1C6"/>
</svg>
